<svg width="124" height="59" viewBox="0 0 124 59" fill="none" xmlns="http://www.w3.org/2000/svg">
<path d="M27.5195 40.9509C31.2335 32.2784 36.3977 25.873 40.6464 17.7572C41.0418 17.0018 43.9655 10.656 42.8812 14.8318C41.5155 20.0917 37.619 24.7745 34.8228 28.7662C32.7461 31.7307 28.5347 36.8731 27.6065 40.4479C26.601 44.3202 27.5662 40.3227 28.8953 38.0073C31.4811 33.5025 33.6915 29.0419 36.6665 24.8989C39.2997 21.2318 42.2721 18.0643 44.8999 14.3839C46.574 12.0391 42.3755 19.7752 41.6294 20.7932C35.3605 29.3469 28.7203 38.8312 23.9078 48.8055C21.7559 53.2653 28.5007 40.0873 31.2076 36.1666C33.8927 32.2776 36.7234 27.9518 38.9346 23.565C39.3279 22.7847 41.3246 19.1385 39.8802 21.605C37.7717 25.2059 34.4367 28.2335 32.3302 32.1797C31.8231 33.1296 32.6298 29.5782 32.037 28.6365C30.7984 26.6691 29.4608 25.5942 28.6831 23.1809C28.4884 22.5766 27.1834 18.276 27.7905 20.096C29.0938 24.0038 32.0777 27.6671 34.2188 30.7559C37.1138 34.9322 40.4847 38.4651 43.2346 42.8331C45.4078 46.2852 40.256 39.8919 39.7382 39.0103C37.6712 35.4911 34.6076 32.7199 32.3771 29.1768C31.679 28.068 29.3928 24.18 29.4866 24.329C33.4242 30.5836 39.0912 34.3008 43.2618 40.0554C47.004 45.2188 34.8647 30.9583 30.2757 27.1211C29.3057 26.31 27.4766 23.0189 28.6453 23.1209C29.8034 23.2219 34.4068 31.2283 35.2343 32.4331C37.9511 36.3885 43.5592 39.339 45.0238 44.5211" stroke="black" stroke-linecap="round" stroke-linejoin="round"/>
<path d="M54.0595 15.0613C50.8813 26.2557 54.2284 37.763 52.9956 49.0917C52.9071 49.9056 52.9569 53.4905 52.9971 53.1203C53.2213 51.0601 53.4455 49 53.6697 46.9398C54.4987 39.321 54.4551 31.637 55.284 24.0188C55.3949 23.0002 56.1324 13.6479 54.8822 13.7888C54.2554 13.8595 54.3268 16.6465 54.2817 17.0613C53.6621 22.7553 53.0425 28.4492 52.423 34.1432C51.9239 38.7296 51.7401 43.259 51.3724 47.8408C51.3094 48.625 51.3112 50.0407 51.5094 50.8483C51.8374 52.1848 54.7875 47.3878 54.8565 47.2608C56.7181 43.8325 60.0467 40.9015 62.9936 38.0558C63.7791 37.2972 67.3491 33.427 65.2328 33.1967C62.3831 32.8866 59.5333 32.5765 56.6836 32.2664C56.185 32.2122 52.3947 31.7998 54.6308 32.0431C56.7963 32.2787 58.9618 32.5143 61.1273 32.75C62.3647 32.8846 63.6125 32.9906 64.8464 33.1547C66.0077 33.309 64.8751 33.5456 64.5245 33.8678C62.1816 36.0206 61.2099 38.897 59.0397 41.1553C57.5034 42.754 55.2712 44.5219 54.1745 46.3425C53.7452 47.0552 53.7473 47.8811 52.9774 48.3607C52.135 48.8856 54.3654 46.0568 54.7097 45.6909C55.874 44.4536 67.3236 34.6325 66.665 34.4076C63.9548 33.4823 59.7927 33.6407 56.9103 33.327C56.7405 33.3085 53.509 32.8657 53.7514 32.7147C55.3464 31.721 60.5393 33.0787 62.4149 33.0435C63.2539 33.0278 69.531 32.2734 68.1232 33.3578C66.4489 34.6474 64.727 35.8332 63.0885 37.1837C59.768 39.9203 57.1292 43.6436 54.6522 46.8932C54.2724 47.3915 52.7994 48.9655 53.8796 47.4806C55.2147 45.6452 56.8716 43.7088 58.6868 42.1528C60.7905 40.3495 62.8643 38.7583 64.4468 36.6025C64.7403 36.2027 67.1255 34.1996 65.1615 34.3016C61.4627 34.4935 57.5395 33.7408 53.8302 33.3372C51.9131 33.1285 52.4718 33.2295 53.4987 32.3419C55.6659 30.4686 58.0284 28.739 60.0459 26.7431C62.546 24.2697 65.1046 21.8062 67.6648 19.3808C69.0741 18.0457 68.9165 18.3997 67.8105 19.8379C66.2192 21.9072 63.7061 23.4982 62.052 25.5993C60.9512 26.9976 60.0765 28.7741 58.3911 29.8241C58.0984 30.0065 54.735 33.1072 54.8111 32.408C54.9487 31.1428 57.7686 28.8676 58.8307 28.0304C61.0646 26.2693 62.9284 24.5263 64.7818 22.5201C66.2429 20.9386 68.4412 19.0433 64.6672 18.6326C61.7312 18.3132 58.905 17.9678 56.0323 17.3669C53.602 16.8586 55.3402 16.9271 56.9168 17.0987C59.9355 17.4272 62.9543 17.7557 65.9731 18.0841C68.7922 18.3909 64.6182 17.9367 63.872 17.8555C60.5759 17.4969 57.6223 16.953 54.4311 16.1376C51.6999 15.4398 53.8719 15.5547 55.2811 15.9615C58.349 16.8474 61.2849 17.2287 64.4888 17.5773C65.8034 17.7204 68.7463 17.54 67.2672 18.9923C64.1456 22.0573 61.923 25.4623 59.4002 28.8597C58.0316 30.7028 55.7008 32.1914 54.6254 34.1143" stroke="black" stroke-linecap="round" stroke-linejoin="round"/>
<path d="M70.1259 55.3127C70.2436 45.4618 75.6126 36.9395 77.9303 27.4878C78.648 24.5607 79.4373 21.6885 80.3163 18.8406C83.1794 9.56437 76.3316 37.9054 73.0339 47.0371C71.9471 50.0467 71.1347 53.1227 70.0265 56.1055C69.8409 56.6051 69.2312 58.0258 69.2312 57.4931C69.2312 54.448 69.9956 52.1275 70.7722 49.2422C71.6424 46.0088 72.302 43.0668 73.6801 39.9756C74.8353 37.3844 76.0534 34.9532 76.8367 32.2203C77.8901 28.5447 79.8252 24.9241 79.9683 21.0705C79.9936 20.3897 80.4157 19.9009 80.4157 19.1874C80.4157 17.4862 80.4093 21.5261 80.3909 21.8386C80.1022 26.7304 76.6373 31.5739 74.9477 36.0855C73.3743 40.2869 71.3489 44.3999 70.5733 48.8458C70.2337 50.7927 69.9427 54.3034 69.0075 55.9817C68.7 56.5334 68.7286 57.1419 68.3613 57.6913C67.2317 59.3803 69.0554 53.6773 69.6786 51.7447C71.0935 47.3564 72.8539 43.1531 74.3512 38.811C75.4627 35.5877 76.4162 31.7941 78.1788 28.9001C79.1306 27.3373 79.9683 24.6203 79.9683 22.7554" stroke="black" stroke-linecap="round" stroke-linejoin="round"/>
<path d="M80.6317 16.402C82.5238 23.7601 85.2423 30.7648 86.4695 38.339C87.161 42.6068 87.3443 46.9599 87.918 51.2388C88.0795 52.443 88.7184 53.4369 88.1671 51.5C87.4565 49.0038 87.2263 46.4097 86.5885 43.8827C85.6222 40.0542 85.4322 36.0618 84.4607 32.245C83.7154 29.3171 82.4578 26.6158 81.4283 23.7973C80.7721 22.0008 80.5727 20.2284 80.5369 18.3395C80.5351 18.2465 81.2273 21.2763 81.6294 22.4637C83.1902 27.0733 85.0875 31.6293 86.3253 36.3383C87.3557 40.258 87.7473 44.2637 88.7024 48.1822C88.8248 48.6843 89.1248 50.9421 88.9972 50.5883C88.2324 48.467 87.3662 46.38 86.8266 44.166C85.701 39.5484 84.7068 34.9071 83.5334 30.2973C83.1483 28.7848 82.1852 26.4507 82.2611 24.8989C82.3276 23.5403 81.5834 22.0457 81.4409 20.6615C81.3018 19.3101 81.4401 17.4892 80.6317 16.402Z" stroke="black" stroke-linecap="round" stroke-linejoin="round"/>
<path d="M94.5103 20.2138C94.8527 27.3584 95.195 34.503 95.5374 41.6476C95.5653 42.2299 95.6491 43.977 95.6211 43.3946C95.5035 40.94 95.3859 38.4855 95.2683 36.0309C95.0084 30.6082 94.7485 25.1856 94.4887 19.763C94.44 18.7486 94.2942 15.7054 94.3428 16.7198C94.4418 18.7862 94.5409 20.8525 94.6399 22.9189C94.9883 30.1887 95.3367 37.4585 95.6851 44.7284C95.697 44.9771 95.6034 46.5065 95.5717 45.8447C95.4729 43.7832 95.4119 41.7709 95.4447 39.7127C95.5271 34.5386 95.7867 29.4391 95.5371 24.2315C95.4345 22.09 95.3318 19.9485 95.2292 17.807C95.1841 16.8646 95.0409 16.92 94.9813 17.8565C94.8902 19.289 94.887 21.1115 94.9575 22.5836C95.204 27.727 95.5695 32.9178 95.569 38.0499C95.5687 40.4112 95.9857 47.5195 95.8722 45.1524C95.5442 38.3067 95.0781 31.4064 94.9226 24.5622C94.8466 21.2178 95.1057 17.9495 95.0678 14.6328C95.0657 14.4469 94.9648 12.2884 95.0105 13.2422C95.1104 15.3274 95.2103 17.4125 95.3102 19.4977C95.6124 25.8032 95.748 32.1149 96.0512 38.441" stroke="black" stroke-linecap="round" stroke-linejoin="round"/>
<path d="M105.336 40.2781C105.336 32.3578 105.009 24.4784 105.009 16.5841C105.009 10.7992 105.258 28.149 105.336 33.9328C105.386 37.6142 105.99 41.3501 105.99 44.9615C105.99 50.2996 105.99 34.2854 105.99 28.9473C105.99 25.4877 106.051 22.0595 105.736 18.6236C105.691 18.132 105.432 16.1715 105.681 15.6524C106.047 14.893 106.225 17.3155 106.499 18.1452C107.656 21.6442 108.854 24.8003 110.641 27.789C111.511 29.2434 112.441 30.9214 113.112 32.5731C113.226 32.8557 112.226 31.195 111.895 30.735C109.62 27.5818 107.373 23.5447 105.663 19.7819C105.403 19.2093 104.777 17.3902 105.082 17.9186C105.87 19.2833 105.969 21.3879 106.699 22.8538C109.314 28.1096 112.329 33.238 114.492 38.9184C115.211 40.8046 116.206 43.1068 117.29 44.609C117.457 44.8399 122.301 52.2594 121.687 50.3189C120.85 47.6768 116.755 42.196 115.655 39.7242C113.241 34.2981 110.38 29.2889 108.007 23.8358C107.537 22.7574 104.043 14.9107 105.99 19.8826C107.008 22.4815 108.507 25.0052 109.805 27.3358C112.409 32.0073 114.861 36.8211 117.399 41.5623C119.025 44.5996 120.462 47.999 122.177 50.9039C122.439 51.3483 123.136 52.8247 122.976 51.3823M122.976 51.3823C122.779 49.6018 122.301 47.6135 122.014 45.8176C120.415 35.8492 119.106 25.9079 118.762 15.6524C118.689 13.4973 118.559 11.3789 118.253 9.25682C117.964 7.25486 117.762 7.65415 117.762 9.45825C117.762 17.398 118.449 25.3153 119.234 33.1775C119.576 36.6 120.021 39.9924 120.524 43.3752C120.742 44.8429 120.779 46.5739 121.36 47.8823C122.12 49.5954 121.687 45.846 121.687 45.1629C121.687 40.5311 121.82 35.8545 121.505 31.2386C120.921 22.6878 120.013 13.4966 118.671 5.12736C117.808 -0.256887 118.416 16.1548 118.416 21.6704C118.416 32.4517 118.226 32.1057 118.907 42.8464C118.956 43.6138 118.995 49.3782 119.234 45.8176C119.643 39.7292 119.724 44.6996 119.724 38.5911C119.724 27.296 120.491 15.4283 119.143 4.22089C118.856 1.82891 118.4 -1.23852 118.925 3.44032C120.004 13.0515 119.645 22.8786 119.724 32.5731C119.761 37.0232 120.052 41.4674 120.052 45.9435C120.052 46.9778 121.919 51.8707 122.976 51.3823Z" stroke="black" stroke-linecap="round" stroke-linejoin="round"/>
<path d="M12.2572 49.5312C9.60094 48.2891 6.37175 46.1308 4.0974 43.6814C3.07916 42.5848 3.05391 42.342 4.16401 43.1314C8.52086 46.2295 12.8917 49.1079 16.8867 53.106C18.2191 54.4395 13.9893 51.0562 12.557 49.9812C9.75838 47.8805 6.93231 45.8747 4.16401 43.6814C3.45631 43.1207 3.08464 42.7809 2.29891 42.4314C1.88323 42.2465 1 42.9823 1 42.3314C1 42.2558 2.26035 40.5194 2.38217 40.2565C5.02589 34.5514 7.26918 28.454 9.70935 22.5571C10.6211 20.3539 11.4601 17.8449 12.557 15.8324C12.6912 15.586 13.6304 14.0728 13.6227 14.1824C13.5281 15.5316 12.651 17.1203 12.1906 18.2323C11.1549 20.7335 10.1284 23.2876 8.89337 25.582C7.52797 28.1186 6.02632 30.4877 4.66359 33.0318C3.77577 34.6892 3.22523 36.6222 2.36552 38.2816C2.13228 38.7317 1.28594 41.8219 1.33305 41.7814C1.82929 41.3558 2.26369 39.4086 2.53205 38.6566C3.32133 36.4448 4.10705 34.3511 4.99664 32.2318C6.7003 28.1731 8.72763 24.4873 10.3921 20.3822C10.7719 19.4456 11.4572 17.6757 12.0907 17.1323C12.2625 16.985 12.2988 16.2109 12.2239 16.6323C11.8402 18.7925 11.1381 20.653 10.3255 22.5071C8.38813 26.9279 6.43487 31.3591 4.39715 35.6817C3.41741 37.7599 2.38979 39.8611 1.46628 41.9814C0.326659 44.598 2.72965 38.9736 2.98167 38.4566C5.95871 32.3487 8.51066 25.4453 11.1748 19.0072C11.866 17.3368 12.7052 15.6454 13.1565 13.7824C13.2431 13.4247 13.6449 12.4361 13.3896 13.4324C12.6022 16.5059 10.9452 19.2175 9.62609 21.7821C7.61672 25.6887 5.64641 29.73 3.89757 33.9067C3.07695 35.8666 1.81967 37.7629 1.19983 39.8565C0.998035 40.5381 3.18161 41.323 3.53121 41.5315C9.00134 44.7937 13.185 53.4155 19.0016 55.356C19.1586 55.4084 16.6137 52.8147 15.9874 52.2311C13.1289 49.5676 10.3322 46.8918 7.16149 45.1313C6.70236 44.8764 3.58731 42.7814 3.86426 42.7814C6.1922 42.7814 9.18733 46.562 11.0749 48.1812C13.9301 50.6305 16.6749 53.4508 19.5511 55.8059C20.2984 56.4178 19.9715 55.4531 19.5844 54.706C19.0101 53.5975 18.4904 52.1508 18.1023 50.8561C17.7215 49.5858 17.3015 45.4404 17.3529 46.8313C17.426 48.8052 18.2546 51.7884 18.8517 53.581C19.6387 55.9439 20.0259 54.7641 19.5844 52.6811C18.9975 49.9119 18.2614 47.2804 17.9524 44.3814C17.6985 41.9991 17.6527 41.6167 17.6527 44.2314C17.6527 46.4503 17.3131 49.2969 17.7193 51.4311C17.8656 52.1998 18.4768 54.3332 17.636 53.781C16.0701 52.7526 14.7909 51.033 13.1398 50.2311C11.1704 49.2746 9.32228 48.1883 7.46124 46.8313C6.76838 46.3261 6.0392 45.9453 5.363 45.3813C4.6831 44.8143 4.33724 43.7514 3.73104 43.2314C2.80829 42.4398 4.80398 35.1494 5.12987 33.6817C6.28027 28.5007 8.27471 24.4681 10.3088 20.0572C10.7752 19.0461 11.3281 17.5706 11.6577 16.4573C12.0137 15.255 12.6946 14.9317 13.0898 13.9824C13.6185 12.7127 13.4562 16.6835 13.4562 17.2323C13.4562 19.9464 13.7646 21.8226 14.4887 24.3071C14.8642 25.5956 15.1814 26.9376 15.6877 28.1319C15.8683 28.558 15.8542 28.9449 15.8542 29.4319C15.8542 30.6042 15.4869 27.1513 15.2547 26.032C14.8391 24.0291 13.8795 22.3172 13.5228 20.2822C13.2447 18.6956 12.7715 15.0141 13.3063 18.7073C13.6798 21.2863 14.1404 24.0928 14.8051 26.532C15.5305 29.194 15.8342 28.6189 15.0216 26.132C14.232 23.7157 12.944 21.0498 12.6236 18.3823C12.5092 17.4301 12.2572 14.5649 12.2572 15.5324C12.2572 16.5494 12.7586 17.6223 13.0066 18.5323C13.6809 21.0068 14.4564 23.4194 15.1048 25.907C15.3189 26.7283 16.4673 28.3921 15.8542 27.9319" stroke="black" stroke-linecap="round" stroke-linejoin="round"/>
</svg>
