<svg width="256" height="128" viewBox="0 0 256 128" fill="none" xmlns="http://www.w3.org/2000/svg">
<defs>
    <style>
        .color {
            color: #1A1A1A;
        }
        @media (prefers-color-scheme: dark) {
            .color {
                color: #FFFFFF;
            }
        }
    </style>
</defs>
<path class="color" d="M95.2309 29C95.1829 31.0878 94.4125 33.8703 93.2653 36.8907M93.2653 36.8907C93.0559 37.4421 92.8339 38.0015 92.6014 38.566M93.2653 36.8907C93.2398 36.5659 93.2042 36.2462 93.1547 35.9326M93.2653 36.8907C93.2674 36.9175 93.2695 36.9443 93.2714 36.9712M92.6014 38.566C92.5981 38.5739 92.5949 38.5818 92.5917 38.5896M92.6014 38.566C92.5983 38.5732 92.5952 38.5803 92.5921 38.5874M92.6014 38.566C92.8131 38.0763 93.0429 37.5265 93.2714 36.9712M92.5917 38.5896C92.3608 39.1496 92.1197 39.7147 91.8704 40.282M92.5917 38.5896C92.5632 38.7222 92.5351 38.8551 92.5074 38.988M92.5917 38.5896L92.5921 38.5874M91.8704 40.282C91.6534 40.7758 91.4302 41.2713 91.2022 41.7669M91.8704 40.282C92.087 39.8534 92.2998 39.4223 92.5074 38.988M91.8704 40.282C91.71 40.5994 91.5475 40.9155 91.3832 41.2307M91.2022 41.7669C90.6624 42.9396 90.0954 44.1121 89.5191 45.2607M91.2022 41.7669C90.637 43.5679 90.3924 45.5772 89.5294 47.2758C89.4438 47.4441 89.3551 47.61 89.2636 47.7738M91.2022 41.7669C91.259 41.5858 91.319 41.4069 91.3832 41.2307M89.5191 45.2607C88.4867 47.3185 87.4243 49.2996 86.4352 51.0677M89.5191 45.2607C89.4915 45.9703 89.4077 46.8396 89.2636 47.7738M89.5191 45.2607C89.526 45.0849 89.5294 44.9189 89.5294 44.7642C89.5294 44.7361 89.5294 44.708 89.5295 44.6799M86.4352 51.0677C86.0556 51.7463 85.6868 52.3935 85.3346 53.0016M86.4352 51.0677C86.807 50.1173 87.1362 49.2241 87.4177 48.6652C88.0971 47.3161 88.8128 45.9959 89.5295 44.6799M86.4352 51.0677C86.2813 51.4612 86.1201 51.8646 85.952 52.2581M85.3346 53.0016C84.8694 53.8048 84.4332 54.5398 84.0394 55.1889M85.3346 53.0016C84.8938 53.538 84.4619 54.0808 84.0544 54.6415M85.3346 53.0016C85.539 52.7528 85.7453 52.5053 85.952 52.2581M84.0394 55.1889C83.9765 55.2925 83.9147 55.3939 83.8541 55.4931M84.0394 55.1889C84.1237 55.1175 84.2116 55.0449 84.3029 54.9709C84.9059 54.4826 85.4587 53.4127 85.952 52.2581M84.0394 55.1889C83.9878 55.2325 83.9376 55.2756 83.8887 55.3183M83.8541 55.4931C83.2354 56.5048 82.7348 57.281 82.4105 57.7452M83.8541 55.4931C83.8649 55.4352 83.8765 55.3769 83.8887 55.3183M83.8541 55.4931C83.6403 56.6368 83.6972 57.6401 84.1604 58.388M82.4105 57.7452C81.9148 58.4545 81.8307 58.4349 82.3651 57.4125M82.4105 57.7452C82.3732 57.6431 82.3575 57.5324 82.3651 57.4125M82.4105 57.7452C82.5932 58.2453 83.2936 58.538 84.3062 58.6881M82.3651 57.4125C82.4972 57.1599 82.6669 56.8462 82.8776 56.4671C82.9492 56.3382 83.0227 56.2106 83.0978 56.0843M82.3651 57.4125C82.3878 57.0559 82.6166 56.618 83.0978 56.0843M83.0978 56.0843C83.3938 55.5864 83.7157 55.1078 84.0544 54.6415M83.0978 56.0843C83.3107 55.8481 83.573 55.5932 83.8887 55.3183M84.0544 54.6415C85.0027 51.2475 87.8392 46.9589 89.5328 44.3442M84.0544 54.6415C83.9902 54.8715 83.9346 55.0973 83.8887 55.3183M85.952 52.2581C87.1441 50.8318 88.3476 49.4118 89.2636 47.7738M89.2636 47.7738C88.7887 50.8517 87.6591 54.6332 85.7283 55.719C83.3146 57.0764 83.7633 58.0972 85.1333 58.7758M91.3832 41.2307C91.5311 40.8249 91.7011 40.4331 91.905 40.0617C92.0747 39.7525 92.3179 39.2213 92.5921 38.5874M91.3832 41.2307C90.78 42.3882 90.1544 43.5325 89.5295 44.6799M92.5921 38.5874C92.7928 37.653 93.0085 36.7359 93.1547 35.9326M93.2714 36.9712C94.3868 34.2613 95.473 31.4185 94.2806 34.7713C93.9777 35.623 93.6454 36.4551 93.2909 37.2726M93.2714 36.9712C93.2788 37.0712 93.2852 37.1717 93.2909 37.2726M93.2909 37.2726C93.04 37.8511 92.778 38.4223 92.5074 38.988M93.2909 37.2726C93.3327 38.0221 93.3304 38.7957 93.3304 39.5807C93.3304 40.0675 88.7791 44.3367 90.5337 44.3367C89.9785 43.2129 92.1093 40.9058 92.5074 38.988M89.5295 44.6799C89.5299 44.5679 89.531 44.456 89.5328 44.3442M84.3062 58.6881C84.3342 58.6922 84.3624 58.6963 84.3909 58.7002M84.3062 58.6881C84.3627 58.7254 84.4245 58.7656 84.4917 58.8088M84.3062 58.6881C83.6562 58.2587 83.7008 58.2048 84.1604 58.388M84.3909 58.7002C84.5855 58.7271 84.7911 58.749 85.0063 58.7663M84.3909 58.7002C84.305 58.6019 84.2284 58.4977 84.1604 58.388M84.3909 58.7002C84.4232 58.7372 84.4568 58.7734 84.4917 58.8088M85.0063 58.7663C85.0483 58.7696 85.0906 58.7728 85.1333 58.7758M85.0063 58.7663C84.6574 58.6007 84.367 58.4704 84.1604 58.388M85.0063 58.7663C85.5529 59.0257 86.2431 59.372 86.9789 59.7566M85.1333 58.7758C85.5478 58.8052 85.9957 58.8184 86.4674 58.8184C90.9652 58.8184 94.9346 60.4603 97.8687 63.7495M85.1333 58.7758C86.4814 59.4437 88.7218 59.7803 90.0045 59.7803C91.5044 59.7803 93.1964 61.7754 94.5553 63.8268M97.8687 63.7495C97.9583 63.8499 98.0468 63.9519 98.1345 64.0553C98.3118 64.2648 98.775 64.3922 99.2195 64.4697M97.8687 63.7495C98.0567 63.6709 98.2837 63.6278 98.5568 63.6278C99.3202 63.6278 103.714 63.2837 103.202 64.2156C101.615 67.1088 100.174 68.9911 99.9822 72.2848C99.8951 73.7823 95.5654 76.7958 94.4918 77.8423C94.0447 78.2781 93.614 78.703 93.1993 79.1217M97.8687 63.7495C97.5469 63.8841 97.339 64.123 97.2085 64.4283M99.2195 64.4697C99.6189 64.5394 100.003 64.5687 100.151 64.581M99.2195 64.4697C99.213 64.5045 99.2066 64.5405 99.2003 64.5778M99.2195 64.4697C99.4714 63.1252 99.9145 63.5731 100.151 64.581M100.151 64.581C100.231 64.5875 100.243 64.5892 100.154 64.5896M100.151 64.581L100.154 64.5896M100.154 64.5896C100.136 64.5897 100.114 64.5897 100.088 64.5897C99.7871 64.5897 99.4917 64.5861 99.2003 64.5778M100.154 64.5896C100.428 65.7663 100.421 67.6968 99.507 68.4372C99.4995 68.4433 99.4919 68.4494 99.4844 68.4555M99.2003 64.5778C98.5188 64.5583 97.8596 64.5131 97.2085 64.4283M99.2003 64.5778C99.0981 65.1861 99.0319 66.1209 99.0319 67.4754C99.0319 67.7397 99.0378 67.9779 99.0487 68.192M97.2085 64.4283C96.3213 64.3129 95.4491 64.124 94.5553 63.8268M97.2085 64.4283C96.9861 64.9486 96.9883 65.662 97.0341 66.3826M94.5553 63.8268C94.3246 63.7501 94.0925 63.6661 93.8583 63.5744C93.7098 63.5162 93.5601 63.4565 93.4094 63.3955M94.5553 63.8268C94.8498 64.2714 95.1287 64.7186 95.3865 65.1487M93.4094 63.3955C92.9987 63.2292 92.5807 63.0527 92.1586 62.8678M93.4094 63.3955C91.7801 61.5765 90.6483 59.7803 87.6288 59.7803C87.4007 59.7803 87.1842 59.7723 86.9789 59.7566M93.4094 63.3955C93.7861 63.816 94.1893 64.2377 94.6485 64.6387M92.1586 62.8678C89.9761 61.9118 87.6842 60.7311 85.7283 59.5665C85.6782 59.5367 85.6292 59.5074 85.5813 59.4788M92.1586 62.8678C92.0736 62.8012 91.989 62.7339 91.905 62.6659C91.0744 61.9933 88.8749 60.7476 86.9789 59.7566M92.1586 62.8678C92.9591 63.4944 93.8054 64.0622 94.6485 64.6387M85.5813 59.4788C85.1218 59.2039 84.7626 58.9825 84.4917 58.8088M85.5813 59.4788C85.1277 59.3151 84.7683 59.0885 84.4917 58.8088M85.5813 59.4788C85.9741 59.6206 86.4375 59.7152 86.9789 59.7566M94.6485 64.6387C94.8952 64.8074 95.1416 64.9768 95.3865 65.1487M94.6485 64.6387C94.817 64.7858 94.9931 64.9302 95.1781 65.0706C95.2815 65.1491 95.3819 65.2273 95.4799 65.3052M95.3865 65.1487C95.8166 65.4505 96.2421 65.7599 96.6563 66.086C96.7874 66.1892 96.9134 66.288 97.0341 66.3826M95.3865 65.1487C95.418 65.2011 95.4491 65.2533 95.4799 65.3052M97.0341 66.3826C97.9865 67.1298 98.611 67.6235 98.8864 68.0876M97.0341 66.3826C97.0398 66.4738 97.0463 66.565 97.0531 66.656M98.8864 68.0876C99.0235 68.3187 99.0741 68.5425 99.0355 68.7866M98.8864 68.0876C98.181 67.6259 97.6131 67.1481 97.0531 66.656M98.8864 68.0876C98.9397 68.1225 98.9938 68.1573 99.0487 68.192M99.0355 68.7866C98.9474 69.3446 98.3934 70.0087 97.3426 71.1091C96.8819 71.5915 96.439 72.0933 96.0126 72.6125M99.0355 68.7866C99.0548 68.7736 99.074 68.7604 99.0931 68.7472M99.0355 68.7866C96.0307 70.8233 92.0441 70.1862 90.2684 73.781C88.089 78.1933 85.7283 85.0828 85.7283 90.0796V92.0034M96.0126 72.6125C95.9665 72.6687 95.9205 72.7251 95.8748 72.7817M96.0126 72.6125C95.5283 72.3232 94.7568 72.1633 94.2806 72.7657C93.3117 73.9917 92.3857 75.2087 91.5237 76.4921M96.0126 72.6125C96.0925 72.6602 96.1645 72.7114 96.2262 72.7633M95.8748 72.7817C93.6111 75.581 91.8157 78.8713 90.2948 82.3293M95.8748 72.7817C96.0099 72.7603 96.1266 72.7546 96.2262 72.7633M95.8748 72.7817C95.6453 72.8179 95.3625 72.8995 95.0197 73.0329C93.9525 73.4484 92.6599 74.9176 91.5237 76.4921M90.2948 82.3293C90.1782 82.5942 90.0633 82.8601 89.9499 83.1269M90.2948 82.3293C88.2043 84.944 86.7082 87.7882 85.7283 92.0034M90.2948 82.3293C91.1594 81.2478 92.1258 80.2055 93.1993 79.1217M89.9499 83.1269C88.7815 85.8755 87.7749 88.7132 86.8348 91.4806M89.9499 83.1269C89.0936 84.2546 88.3392 85.4615 87.84 86.9268C87.4902 87.9535 87.1433 89.7049 86.8348 91.4806M89.9499 83.1269C90.8811 81.9006 91.9328 80.7681 92.908 79.4989C92.9881 79.3946 93.0866 79.2676 93.1993 79.1217M86.8348 91.4806C86.4573 92.5917 86.0905 93.6915 85.7283 94.7696M86.8348 91.4806C86.2003 95.1319 85.7283 98.8857 85.7283 96.6525V94.7696M85.7283 94.7696C85.5515 95.2959 85.3758 95.8171 85.2004 96.3319C83.48 101.382 85.3815 93.4955 85.7283 92.0034M85.7283 94.7696V92.0034M93.1993 79.1217C94.5517 77.3708 97.9515 72.9139 96.2262 72.7633M97.0531 66.656C97.0953 67.2179 97.1501 67.77 97.1314 68.2235C97.1266 68.3394 96.4692 66.9718 95.4799 65.3052M97.0531 66.656C96.5532 66.2166 96.0595 65.7659 95.4799 65.3052M89.5328 44.3442C89.5948 40.4929 92.908 36.0669 92.908 32.1761M89.5328 44.3442C90.0601 43.5302 90.4766 42.8784 90.6908 42.4664C91.4918 40.9258 92.1407 36.7629 92.5947 33.9871M92.908 32.1761C92.908 31.4922 97.2546 27.9106 93.3304 30.2045M92.908 32.1761C92.6479 31.9654 93.1547 30.3072 93.3304 30.2045M92.908 32.1761C93.6764 32.7983 92.243 33.2157 92.5947 33.9871M93.3304 30.2045C95.4496 28.0276 92.68 29.3876 93.3304 30.2045ZM92.5947 33.9871C92.8739 34.5992 93.0471 35.2514 93.1547 35.9326M92.5947 33.9871C93.0689 31.0877 93.3304 29.7015 93.3304 34.3972C93.3304 34.8242 93.2609 35.3483 93.1547 35.9326M99.0487 68.192C99.1789 68.2743 99.3138 68.356 99.4542 68.4372C99.4645 68.4432 99.4746 68.4493 99.4844 68.4555M99.0487 68.192C99.0592 68.399 99.0743 68.5834 99.0931 68.7472M99.4844 68.4555C100.46 69.0741 99.3711 71.1643 99.0931 68.7472M99.4844 68.4555C99.3561 68.5584 99.2256 68.6555 99.0931 68.7472M96.2262 72.7633C96.5049 72.998 96.5704 73.2467 96.1811 73.2467M91.5237 76.4921C89.1277 79.8126 87.4276 83.6017 90.0045 78.9645C90.4831 78.1032 90.9912 77.2849 91.5237 76.4921ZM107.584 41.5045C107.584 52.5831 113.638 63.3112 114.236 74.2085C114.364 76.5359 115.186 76.1511 115.186 73.9948C115.186 73.8336 115.185 73.6748 115.183 73.5181M115.183 73.5181C115.146 70.5599 114.74 68.3474 113.497 65.5516C112.767 63.9099 112.387 62.11 112.116 60.2823M115.183 73.5181C115.129 75.6838 114.331 68.4123 113.497 66.5134C112.108 63.3504 111.251 57.9667 110.488 54.4899C110.095 52.7021 108.445 47.8665 109.538 46.207C110.576 44.6295 110.805 47.6166 110.99 50.6124M115.183 73.5181C115.185 73.4401 115.186 73.3498 115.186 73.2466M112.116 60.2823C111.829 58.3489 111.663 56.3844 111.332 54.5433C111.165 53.6106 111.083 52.1104 110.99 50.6124M112.116 60.2823C110.74 56.2026 110.107 51.5269 109.538 47.4895C109.506 47.2651 110.202 48.8495 110.99 50.6124M112.116 60.2823C112.574 61.6388 113.114 62.9294 113.761 64.1087C114.5 65.4555 114.903 67.0644 115.213 68.6915M110.99 50.6124C111.659 52.1087 112.395 53.7335 112.811 54.4899C114.94 58.37 115.21 63.8099 115.213 68.6915M115.186 73.2466C115.186 71.8386 115.214 70.2952 115.213 68.6915M115.186 73.2466C115.186 72.5066 115.343 71.7368 115.61 70.9475M115.213 68.6915C115.357 69.4478 115.481 70.2079 115.61 70.9475M115.61 70.9475C115.778 71.9091 115.953 72.8359 116.189 73.6741C117.365 77.8407 119.123 74.9906 119.956 68.7981M115.61 70.9475C115.784 70.4343 116.003 69.9128 116.256 69.3859M119.956 68.7981C120.043 68.1515 120.113 67.5427 120.163 66.9913M119.956 68.7981C120.468 67.8512 120.888 66.9294 121.137 66.0496C121.684 64.1084 121.074 65.1142 120.163 66.9913M119.956 68.7981C119.256 70.0937 118.384 71.4362 117.545 72.7817M120.163 66.9913C120.2 66.5696 120.226 66.1816 120.239 65.8359C120.298 64.2259 122.843 60.101 121.717 61.2402C119.735 63.2472 118.454 67.1057 117.388 69.6834C116.783 71.1481 116.501 67.7966 116.256 69.3859M120.163 66.9913C119.322 68.7232 118.225 71.1968 117.545 72.7817M116.256 69.3859C116.055 70.6951 115.671 77.5438 116.966 74.1722C117.057 73.9343 117.266 73.433 117.545 72.7817M116.256 69.3859C116.794 68.2656 116.833 73.9244 117.545 72.7817M129.44 75.1704C129.446 74.9167 129.455 74.6666 129.467 74.42M129.467 74.42C129.519 73.3325 129.629 72.3114 129.789 71.3352M129.467 74.42C129.667 72.8785 129.841 71.3157 130.228 69.8456M129.467 74.42C129.233 76.2205 128.964 77.9918 128.279 79.5523C126.261 84.1479 127.608 78.7804 129.789 71.3352M129.789 71.3352C130.194 68.8723 130.921 66.6945 131.857 64.4556M129.789 71.3352C129.932 70.8469 130.079 70.3496 130.228 69.8456M131.857 64.4556C132.116 63.8362 132.391 63.2121 132.68 62.5759M131.857 64.4556C131.389 65.9806 130.924 67.514 130.48 69.0011M131.857 64.4556C132.356 62.8329 132.858 61.2199 133.342 59.6825M132.68 62.5759C133.071 61.713 133.487 60.8279 133.923 59.9024L133.98 59.7803C134.294 59.1139 134.169 58.1728 134.108 57.2723M132.68 62.5759C132.92 61.6184 133.135 60.652 133.342 59.6825M132.68 62.5759C132.213 64.4339 131.652 66.2588 130.865 68.0097C130.72 68.3328 130.593 68.6637 130.48 69.0011M134.108 57.2723C134.079 56.8397 134.065 56.4165 134.121 56.0376M134.108 57.2723C133.86 58.0468 133.604 58.8536 133.342 59.6825M134.108 57.2723C134.413 56.3182 134.706 55.4134 134.98 54.577M134.121 56.0376C134.14 55.912 134.166 55.7913 134.202 55.6767M134.121 56.0376C134.148 55.9173 134.175 55.797 134.202 55.6767M134.121 56.0376C133.85 57.2502 133.602 58.4688 133.342 59.6825M134.202 55.6767C134.29 55.3994 134.435 55.1581 134.666 54.9708C134.762 54.8936 134.867 54.7584 134.98 54.577M134.202 55.6767C134.687 53.5467 135.254 51.4389 136.092 49.4133C137.65 45.6448 137.617 46.7874 137.031 48.9967M134.98 54.577C135.638 53.5156 136.533 50.8719 137.031 48.9967M134.98 54.577C135.312 53.5629 135.616 52.6495 135.881 51.8714C136.459 50.1746 136.95 46.2994 137.031 48.9967M137.031 48.9967C137.038 49.2522 137.042 49.5667 137.042 49.9477C137.042 51.1964 136.951 52.3821 136.798 53.5393M130.48 69.0011C130.387 69.2785 130.304 69.5603 130.228 69.8456M130.48 69.0011C130.395 69.2844 130.311 69.566 130.228 69.8456M136.798 53.5393C136.444 56.2342 135.761 58.7746 135.142 61.5972C134.046 66.5857 131.397 71.7876 130.338 76.6132C130.153 77.4549 128.595 80.3766 128.595 80.3004C128.595 76.5136 131.343 70.0043 133.241 66.7272C135.199 63.3456 135.133 57.8782 136.62 54.009C136.68 53.852 136.74 53.6955 136.798 53.5393ZM136.798 53.5393C137.521 51.6218 138.143 49.7544 138.89 47.8636C139.641 45.9616 138.943 51.9604 138.943 54.009C138.943 57.9404 139.847 61.4739 141.27 64.9199M141.27 64.9199C141.649 65.8378 142.065 66.7495 142.51 67.6608M141.27 64.9199C140.447 61.7365 140.674 57.5259 139.78 54.5642M141.27 64.9199C141.542 65.9736 141.93 66.9147 142.51 67.6608M142.51 67.6608C142.84 68.335 143.185 69.009 143.544 69.6851M142.51 67.6608C142.518 67.6703 142.525 67.6797 142.532 67.6891C142.929 68.1905 143.255 68.8892 143.544 69.6851M143.544 69.6851C143.748 70.0699 143.957 70.4553 144.169 70.8419C146.476 75.0452 142.886 65.356 142.744 63.414C142.63 61.8594 140.69 56.8735 139.78 54.5642M143.544 69.6851C144.3 71.767 144.795 74.5138 145.594 76.1323M139.78 54.5642C139.382 53.554 139.182 53.0559 139.418 53.5815C139.556 53.8896 139.676 54.2184 139.78 54.5642ZM146.545 43.4282C150.41 42.5693 162.222 41.5045 158.265 41.5045C153.229 41.5045 138.395 44.3901 143.43 44.3901C147.613 44.3901 151.55 42.4664 155.572 42.4664C155.695 42.4664 155.812 42.466 155.925 42.4654M155.925 42.4654C159.55 42.4448 157.682 42.1071 155.925 42.4654ZM155.925 42.4654C155.152 42.623 154.4 42.9152 154.147 43.4282M149.395 37.6569C149.395 42.7962 150.465 54.1681 151.293 60.2834M151.293 60.2834C151.818 64.1535 152.246 65.9183 152.246 62.6659C152.246 56.2731 151.296 50.384 151.296 44.3367C151.296 43.127 150.346 35.3773 150.346 39.0998V45.8864C150.346 50.7858 151.24 55.3067 151.293 60.2834ZM151.293 60.2834C151.295 60.4359 151.296 60.5888 151.296 60.7421M168.401 36.6951C168.401 44.0781 167.237 51.1171 166.553 58.3909C166.43 59.6945 166.468 65.2123 166.5 64.5897C166.616 62.3536 167.031 60.1215 167.45 57.8902M167.45 57.8902C167.549 57.368 167.647 56.8458 167.742 56.3237M167.45 57.8902C167.45 57.8785 167.45 57.8673 167.45 57.8565C167.45 55.2745 167.757 52.704 168.124 50.1204M167.45 57.8902C167.449 59.327 167.37 67.2665 167.45 63.2003C167.484 61.4872 167.593 59.0343 167.742 56.3237M167.742 56.3237C167.989 54.9645 168.213 53.6053 168.348 52.2455C168.501 50.6946 168.524 49.1065 168.504 47.5142M167.742 56.3237C167.852 54.3313 167.984 52.1997 168.124 50.1204M168.504 47.5142C168.496 46.8211 168.479 46.1272 168.462 45.4352M168.504 47.5142C168.916 44.7004 169.301 41.8615 169.346 38.966M168.504 47.5142C168.377 48.385 168.247 49.2535 168.124 50.1204M168.462 45.4352C168.432 44.2758 168.401 43.1216 168.401 41.9854C168.401 39.3875 169.351 30.2688 169.351 38.4051C169.351 38.5923 169.349 38.7793 169.346 38.966M168.462 45.4352C168.348 46.9042 168.233 48.4964 168.124 50.1204M168.462 45.4352C168.89 39.8934 169.3 36.1042 169.346 38.966M169.346 38.966C169.349 39.1446 169.351 39.3491 169.351 39.5807M161.749 54.9708C165.197 54.9708 168.75 54.7653 172.202 54.9708C174.408 55.1022 171.421 55.9327 170.671 55.9327H167.612M167.612 55.9327H165.497M167.612 55.9327C166.945 55.9215 166.247 55.9327 165.497 55.9327M167.612 55.9327C169.234 55.9599 170.67 56.1195 172.202 56.8946M165.497 55.9327H160.323" stroke="currentColor" stroke-linecap="round" stroke-linejoin="round"/>
</svg>